Genre:Comedy | Drama
Language:English
IMDb:http://www.imdb.com/title/tt1578275/
Source:Jailbait/Imagine Thx.


Format : AVI
Format/Info : Audio Video Interleave
File size : 818 MiB
Duration : 1h 42mn
Overall bit rate : 1 112 Kbps


Video
Codec ID/Hint : XviD
Duration : 1h 42mn
Bit rate : 846 Kbps
Width : 688 pixels
Height : 384 pixels
Display aspect ratio : 16:9
Frame rate : 25.000 fps
Color space : YUV
Chroma subsampling : 4:2:0
Bit depth : 8 bits
Scan type : Progressive
Bits/(Pixel*Frame) : 0.128
Stream size : 622 MiB (76%)
Writing library : XviD 1.2.1 

Audio
ID : 1
Format : AC-3
Format/Info : Audio Coding 3
Mode extension : CM (complete main)
Codec ID : 2000
Duration : 1h 42mn
Bit rate mode : Constant
Bit rate : 256 Kbps
Channel(s) : 2 channels
Channel positions : Front: L R
Sampling rate : 48.0 KHz
Bit depth : 16 bits
Stream size : 188 MiB (23%)
Alignment : Aligned on interleaves
Interleave, duration : 40 ms (1.00 video frame)
Interleave, preload duration : 512 ms


Plot:
A man discovers that his best friend's wife is having an affair.